<svg width="107" height="32" viewBox="0 0 107 32" fill="none" xmlns="http://www.w3.org/2000/svg">
<g id="Language Button">
<rect id="Rectangle 2" x="0.5" y="0.5" width="106" height="31" rx="15.5" fill="black" stroke="#747474"/>
<g id="Frame 1">
<g id="tabler:world">
<g id="Group">
<path id="Vector" d="M21 13.5H35M21 18.5H35M20.5 16C20.5 16.9849 20.694 17.9602 21.0709 18.8701C21.4478 19.7801 22.0003 20.6069 22.6967 21.3033C23.3931 21.9997 24.2199 22.5522 25.1299 22.9291C26.0398 23.306 27.0151 23.5 28 23.5C28.9849 23.5 29.9602 23.306 30.8701 22.9291C31.7801 22.5522 32.6069 21.9997 33.3033 21.3033C33.9997 20.6069 34.5522 19.7801 34.9291 18.8701C35.306 17.9602 35.5 16.9849 35.5 16C35.5 14.0109 34.7098 12.1032 33.3033 10.6967C31.8968 9.29018 29.9891 8.5 28 8.5C26.0109 8.5 24.1032 9.29018 22.6967 10.6967C21.2902 12.1032 20.5 14.0109 20.5 16Z" stroke="#EAEAEA" stroke-width="2" stroke-linecap="round" stroke-linejoin="round"/>
<path id="Vector_2" d="M27.5833 8.5C26.1795 10.7497 25.4352 13.3482 25.4352 16C25.4352 18.6518 26.1795 21.2503 27.5833 23.5M28.4167 8.5C29.8206 10.7497 30.5648 13.3482 30.5648 16C30.5648 18.6518 29.8206 21.2503 28.4167 23.5" stroke="#EAEAEA" stroke-width="2" stroke-linecap="round" stroke-linejoin="round"/>
</g>
</g>
<path id="English" d="M41.1186 21V10.8182H47.5021V12.1406H42.6548V15.2429H47.169V16.5604H42.6548V19.6776H47.5618V21H41.1186ZM50.9213 16.4659V21H49.4348V13.3636H50.8617V14.6065H50.9561C51.1318 14.2022 51.4069 13.8774 51.7814 13.6321C52.1593 13.3868 52.6349 13.2642 53.2083 13.2642C53.7286 13.2642 54.1844 13.3736 54.5755 13.5923C54.9666 13.8078 55.2698 14.1293 55.4853 14.5568C55.7007 14.9844 55.8084 15.513 55.8084 16.1428V21H54.3219V16.3217C54.3219 15.7682 54.1777 15.3357 53.8894 15.0241C53.601 14.7093 53.205 14.5518 52.7012 14.5518C52.3565 14.5518 52.0499 14.6264 51.7814 14.7756C51.5163 14.9247 51.3058 15.1435 51.15 15.4318C50.9976 15.7169 50.9213 16.0616 50.9213 16.4659ZM61.0037 24.0227C60.3972 24.0227 59.8752 23.9432 59.4377 23.7841C59.0035 23.625 58.6489 23.4145 58.3738 23.1527C58.0987 22.8909 57.8932 22.6042 57.7573 22.2926L59.035 21.7656C59.1245 21.9115 59.2438 22.0656 59.3929 22.228C59.5454 22.3937 59.7509 22.5346 60.0094 22.6506C60.2712 22.7666 60.6077 22.8246 61.0186 22.8246C61.5821 22.8246 62.0478 22.687 62.4157 22.4119C62.7836 22.1402 62.9675 21.706 62.9675 21.1094V19.608H62.873C62.7836 19.7704 62.6543 19.951 62.4853 20.1499C62.3195 20.3487 62.0909 20.5211 61.7992 20.6669C61.5075 20.8127 61.128 20.8857 60.6607 20.8857C60.0575 20.8857 59.5139 20.7448 59.03 20.4631C58.5494 20.178 58.1683 19.7588 57.8865 19.2053C57.6081 18.6484 57.4689 17.964 57.4689 17.152C57.4689 16.34 57.6065 15.6439 57.8816 15.0639C58.16 14.4839 58.5411 14.0398 59.025 13.7315C59.5089 13.42 60.0575 13.2642 60.6706 13.2642C61.1446 13.2642 61.5274 13.3438 61.8191 13.5028C62.1107 13.6586 62.3378 13.8409 62.5002 14.0497C62.6659 14.2585 62.7935 14.4425 62.883 14.6016H62.9924V13.3636H64.449V21.169C64.449 21.8253 64.2966 22.3639 63.9917 22.7848C63.6867 23.2057 63.2741 23.5173 62.7537 23.7195C62.2367 23.9216 61.6534 24.0227 61.0037 24.0227ZM60.9888 19.6527C61.4164 19.6527 61.7776 19.5533 62.0726 19.3544C62.3709 19.1522 62.5963 18.8639 62.7488 18.4893C62.9045 18.1115 62.9824 17.6591 62.9824 17.1321C62.9824 16.6184 62.9062 16.166 62.7537 15.7749C62.6013 15.3838 62.3775 15.0788 62.0826 14.8601C61.7876 14.638 61.423 14.527 60.9888 14.527C60.5414 14.527 60.1685 14.643 59.8702 14.875C59.5719 15.1037 59.3465 15.4152 59.1941 15.8097C59.0449 16.2041 58.9703 16.6449 58.9703 17.1321C58.9703 17.6326 59.0466 18.0717 59.199 18.4496C59.3515 18.8274 59.5769 19.1224 59.8752 19.3345C60.1768 19.5466 60.548 19.6527 60.9888 19.6527ZM67.9292 10.8182V21H66.4426V10.8182H67.9292ZM69.929 21V13.3636H71.4155V21H69.929ZM70.6797 12.1854C70.4212 12.1854 70.1991 12.0992 70.0135 11.9268C69.8312 11.7512 69.7401 11.5424 69.7401 11.3004C69.7401 11.0552 69.8312 10.8464 70.0135 10.674C70.1991 10.4983 70.4212 10.4105 70.6797 10.4105C70.9382 10.4105 71.1586 10.4983 71.3409 10.674C71.5265 10.8464 71.6193 11.0552 71.6193 11.3004C71.6193 11.5424 71.5265 11.7512 71.3409 11.9268C71.1586 12.0992 70.9382 12.1854 70.6797 12.1854ZM79.1376 15.228L77.7903 15.4666C77.734 15.2943 77.6445 15.1302 77.5218 14.9744C77.4025 14.8187 77.2401 14.6911 77.0346 14.5916C76.8291 14.4922 76.5723 14.4425 76.264 14.4425C75.8431 14.4425 75.4918 14.5369 75.21 14.7259C74.9283 14.9115 74.7875 15.1518 74.7875 15.4467C74.7875 15.7019 74.8819 15.9074 75.0708 16.0632C75.2598 16.219 75.5647 16.3466 75.9856 16.446L77.1987 16.7244C77.9013 16.8868 78.425 17.1371 78.7697 17.4751C79.1144 17.8132 79.2868 18.2524 79.2868 18.7926C79.2868 19.25 79.1542 19.6577 78.889 20.0156C78.6272 20.3703 78.2609 20.6487 77.7903 20.8509C77.323 21.053 76.7811 21.1541 76.1646 21.1541C75.3095 21.1541 74.6118 20.9718 74.0716 20.6072C73.5313 20.2393 73.1999 19.7173 73.0772 19.0412L74.514 18.8224C74.6035 19.197 74.7875 19.4804 75.0659 19.6726C75.3443 19.8615 75.7072 19.956 76.1547 19.956C76.6419 19.956 77.0313 19.8549 77.323 19.6527C77.6146 19.4472 77.7605 19.197 77.7605 18.902C77.7605 18.6634 77.671 18.4628 77.492 18.3004C77.3163 18.138 77.0462 18.0154 76.6816 17.9325L75.389 17.6491C74.6764 17.4867 74.1494 17.2282 73.8081 16.8736C73.47 16.5189 73.301 16.0698 73.301 15.5263C73.301 15.0755 73.4269 14.6811 73.6788 14.343C73.9307 14.005 74.2787 13.7415 74.7228 13.5526C75.167 13.3603 75.6757 13.2642 76.2491 13.2642C77.0744 13.2642 77.724 13.4432 78.198 13.8011C78.6719 14.1558 78.9851 14.6314 79.1376 15.228ZM82.4077 16.4659V21H80.9212V10.8182H82.3878V14.6065H82.4822C82.6612 14.1955 82.9347 13.8691 83.3026 13.6271C83.6705 13.3852 84.151 13.2642 84.7443 13.2642C85.268 13.2642 85.7254 13.3719 86.1165 13.5874C86.5109 13.8028 86.8158 14.1243 87.0312 14.5518C87.25 14.9761 87.3594 15.5064 87.3594 16.1428V21H85.8729V16.3217C85.8729 15.7616 85.7287 15.3274 85.4403 15.0192C85.152 14.7076 84.7509 14.5518 84.2372 14.5518C83.8859 14.5518 83.571 14.6264 83.2926 14.7756C83.0175 14.9247 82.8004 15.1435 82.6413 15.4318C82.4856 15.7169 82.4077 16.0616 82.4077 16.4659Z" fill="white"/>
</g>
</g>
</svg>
